{
    "asset" : {
        "generator" : "Khronos glTF Blender I/O v1.0.5",
        "version" : "2.0"
    },
    "scene" : 0,
    "scenes" : [
        {
            "name" : "Scene",
            "nodes" : [
                0
            ]
        }
    ],
    "nodes" : [
        {
            "mesh" : 0,
            "name" : "Plane"
        }
    ],
    "meshes" : [
        {
            "name" : "Plane",
            "primitives" : [
                {
                    "attributes" : {
                        "POSITION" : 0,
                        "NORMAL" : 1,
                        "TEXCOORD_0" : 2
                    },
                    "indices" : 3
                }
            ]
        }
    ],
    "accessors" : [
        {
            "bufferView" : 0,
            "componentType" : 5126,
            "count" : 27480,
            "max" : [
                20.083532333374023,
                4.729951858520508,
                20.051349639892578
            ],
            "min" : [
                -20.078792572021484,
                0.1182338297367096,
                -20.031845092773438
            ],
            "type" : "VEC3"
        },
        {
            "bufferView" : 1,
            "componentType" : 5126,
            "count" : 27480,
            "type" : "VEC3"
        },
        {
            "bufferView" : 2,
            "componentType" : 5126,
            "count" : 27480,
            "type" : "VEC2"
        },
        {
            "bufferView" : 3,
            "componentType" : 5123,
            "count" : 27480,
            "type" : "SCALAR"
        }
    ],
    "bufferViews" : [
        {
            "buffer" : 0,
            "byteLength" : 329760,
            "byteOffset" : 0
        },
        {
            "buffer" : 0,
            "byteLength" : 329760,
            "byteOffset" : 329760
        },
        {
            "buffer" : 0,
            "byteLength" : 219840,
            "byteOffset" : 659520
        },
        {
            "buffer" : 0,
            "byteLength" : 54960,
            "byteOffset" : 879360
        }
    ],
    "buffers" : [
        {
            "byteLength" : 934320,
            "uri" : "data:application/octet-stream;base64,"
        }
    ]
}
