{
    "asset" : {
        "generator" : "Khronos glTF Blender I/O v1.0.5",
        "version" : "2.0"
    },
    "scene" : 0,
    "scenes" : [
        {
            "name" : "Scene",
            "nodes" : [
                0,
                1
            ]
        }
    ],
    "nodes" : [
        {
            "mesh" : 0,
            "name" : "Plane"
        },
        {
            "mesh" : 1,
            "name" : "Plane.001",
            "translation" : [
                14.713143348693848,
                1.1956435441970825,
                0
            ]
        }
    ],
    "materials" : [
        {
            "doubleSided" : true,
            "name" : "Grass",
            "pbrMetallicRoughness" : {
                "baseColorFactor" : [
                    0.021748419851064682,
                    0.054937489330768585,
                    0.003496039193123579,
                    1
                ],
                "metallicFactor" : 0,
                "roughnessFactor" : 0.7685714364051819
            }
        },
        {
            "doubleSided" : true,
            "name" : "Sand",
            "pbrMetallicRoughness" : {
                "baseColorFactor" : [
                    0.08714040368795395,
                    0.045309361070394516,
                    0.012729587964713573,
                    1
                ],
                "metallicFactor" : 0,
                "roughnessFactor" : 0.9285714626312256
            }
        },
        {
            "doubleSided" : true,
            "name" : "Rock",
            "pbrMetallicRoughness" : {
                "baseColorFactor" : [
                    0.05221828073263168,
                    0.049493204802274704,
                    0.049493204802274704,
                    1
                ],
                "metallicFactor" : 0,
                "roughnessFactor" : 0.9371428489685059
            }
        },
        {
            "alphaMode" : "BLEND",
            "doubleSided" : true,
            "name" : "Water",
            "pbrMetallicRoughness" : {
                "baseColorFactor" : [
                    0.026178615167737007,
                    0.042384255677461624,
                    0.06370245665311813,
                    1
                ],
                "metallicFactor" : 0,
                "roughnessFactor" : 0.19714300334453583
            }
        }
    ],
    "meshes" : [
        {
            "name" : "Plane",
            "primitives" : [
                {
                    "attributes" : {
                        "POSITION" : 0,
                        "NORMAL" : 1,
                        "TEXCOORD_0" : 2,
                        "COLOR_0" : 3
                    },
                    "indices" : 4,
                    "material" : 0
                },
                {
                    "attributes" : {
                        "POSITION" : 5,
                        "NORMAL" : 6,
                        "TEXCOORD_0" : 7,
                        "COLOR_0" : 8
                    },
                    "indices" : 9,
                    "material" : 1
                },
                {
                    "attributes" : {
                        "POSITION" : 10,
                        "NORMAL" : 11,
                        "TEXCOORD_0" : 12,
                        "COLOR_0" : 13
                    },
                    "indices" : 14,
                    "material" : 2
                }
            ]
        },
        {
            "name" : "Plane.002",
            "primitives" : [
                {
                    "attributes" : {
                        "POSITION" : 15,
                        "NORMAL" : 16,
                        "TEXCOORD_0" : 17
                    },
                    "indices" : 18,
                    "material" : 3
                }
            ]
        }
    ],
    "accessors" : [
        {
            "bufferView" : 0,
            "componentType" : 5126,
            "count" : 2262,
            "max" : [
                20.117897033691406,
                4.913748741149902,
                21.388181686401367
            ],
            "min" : [
                -20.489652633666992,
                -0.22950264811515808,
                -21.4479923248291
            ],
            "type" : "VEC3"
        },
        {
            "bufferView" : 1,
            "componentType" : 5126,
            "count" : 2262,
            "type" : "VEC3"
        },
        {
            "bufferView" : 2,
            "componentType" : 5126,
            "count" : 2262,
            "type" : "VEC2"
        },
        {
            "bufferView" : 3,
            "componentType" : 5126,
            "count" : 2262,
            "type" : "VEC4"
        },
        {
            "bufferView" : 4,
            "componentType" : 5123,
            "count" : 2262,
            "type" : "SCALAR"
        },
        {
            "bufferView" : 5,
            "componentType" : 5126,
            "count" : 843,
            "max" : [
                18.1489315032959,
                4.049307346343994,
                19.94224739074707
            ],
            "min" : [
                2.367340564727783,
                -1.0250288248062134,
                -21.78182029724121
            ],
            "type" : "VEC3"
        },
        {
            "bufferView" : 6,
            "componentType" : 5126,
            "count" : 843,
            "type" : "VEC3"
        },
        {
            "bufferView" : 7,
            "componentType" : 5126,
            "count" : 843,
            "type" : "VEC2"
        },
        {
            "bufferView" : 8,
            "componentType" : 5126,
            "count" : 843,
            "type" : "VEC4"
        },
        {
            "bufferView" : 9,
            "componentType" : 5123,
            "count" : 843,
            "type" : "SCALAR"
        },
        {
            "bufferView" : 10,
            "componentType" : 5126,
            "count" : 3768,
            "max" : [
                -18.03474998474121,
                9.195276260375977,
                20.10129165649414
            ],
            "min" : [
                -29.954153060913086,
                -3.7507636547088623,
                -22.27908706665039
            ],
            "type" : "VEC3"
        },
        {
            "bufferView" : 11,
            "componentType" : 5126,
            "count" : 3768,
            "type" : "VEC3"
        },
        {
            "bufferView" : 12,
            "componentType" : 5126,
            "count" : 3768,
            "type" : "VEC2"
        },
        {
            "bufferView" : 13,
            "componentType" : 5126,
            "count" : 3768,
            "type" : "VEC4"
        },
        {
            "bufferView" : 14,
            "componentType" : 5123,
            "count" : 3768,
            "type" : "SCALAR"
        },
        {
            "bufferView" : 15,
            "componentType" : 5126,
            "count" : 29530,
            "max" : [
                4.390147686004639,
                0.9396939277648926,
                19.841960906982422
            ],
            "min" : [
                -13.599405288696289,
                -2.4443044662475586,
                -23.423093795776367
            ],
            "type" : "VEC3"
        },
        {
            "bufferView" : 16,
            "componentType" : 5126,
            "count" : 29530,
            "type" : "VEC3"
        },
        {
            "bufferView" : 17,
            "componentType" : 5126,
            "count" : 29530,
            "type" : "VEC2"
        },
        {
            "bufferView" : 18,
            "componentType" : 5123,
            "count" : 30744,
            "type" : "SCALAR"
        }
    ],
    "bufferViews" : [
        {
            "buffer" : 0,
            "byteLength" : 27144,
            "byteOffset" : 0
        },
        {
            "buffer" : 0,
            "byteLength" : 27144,
            "byteOffset" : 27144
        },
        {
            "buffer" : 0,
            "byteLength" : 18096,
            "byteOffset" : 54288
        },
        {
            "buffer" : 0,
            "byteLength" : 36192,
            "byteOffset" : 72384
        },
        {
            "buffer" : 0,
            "byteLength" : 4524,
            "byteOffset" : 108576
        },
        {
            "buffer" : 0,
            "byteLength" : 10116,
            "byteOffset" : 113100
        },
        {
            "buffer" : 0,
            "byteLength" : 10116,
            "byteOffset" : 123216
        },
        {
            "buffer" : 0,
            "byteLength" : 6744,
            "byteOffset" : 133332
        },
        {
            "buffer" : 0,
            "byteLength" : 13488,
            "byteOffset" : 140076
        },
        {
            "buffer" : 0,
            "byteLength" : 1686,
            "byteOffset" : 153564
        },
        {
            "buffer" : 0,
            "byteLength" : 45216,
            "byteOffset" : 155252
        },
        {
            "buffer" : 0,
            "byteLength" : 45216,
            "byteOffset" : 200468
        },
        {
            "buffer" : 0,
            "byteLength" : 30144,
            "byteOffset" : 245684
        },
        {
            "buffer" : 0,
            "byteLength" : 60288,
            "byteOffset" : 275828
        },
        {
            "buffer" : 0,
            "byteLength" : 7536,
            "byteOffset" : 336116
        },
        {
            "buffer" : 0,
            "byteLength" : 354360,
            "byteOffset" : 343652
        },
        {
            "buffer" : 0,
            "byteLength" : 354360,
            "byteOffset" : 698012
        },
        {
            "buffer" : 0,
            "byteLength" : 236240,
            "byteOffset" : 1052372
        },
        {
            "buffer" : 0,
            "byteLength" : 61488,
            "byteOffset" : 1288612
        }
    ],
    "buffers" : [
        {
            "byteLength" : 1350100,
            "uri" : "data:application/octet-stream;base64,"
        }
    ]
}
