{
    "asset" : {
        "generator" : "Khronos glTF Blender I/O v1.0.5",
        "version" : "2.0"
    },
    "scene" : 0,
    "scenes" : [
        {
            "name" : "Scene",
            "nodes" : [
                0,
                1
            ]
        }
    ],
    "nodes" : [
        {
            "mesh" : 0,
            "name" : "Plane"
        },
        {
            "mesh" : 1,
            "name" : "Plane.001",
            "translation" : [
                14.713143348693848,
                1.1956435441970825,
                0
            ]
        }
    ],
    "materials" : [
        {
            "doubleSided" : true,
            "name" : "Grass",
            "pbrMetallicRoughness" : {
                "baseColorFactor" : [
                    0.021748419851064682,
                    0.054937489330768585,
                    0.003496039193123579,
                    1
                ],
                "metallicFactor" : 0,
                "roughnessFactor" : 0.7685714364051819
            }
        },
        {
            "doubleSided" : true,
            "name" : "Sand",
            "pbrMetallicRoughness" : {
                "baseColorFactor" : [
                    0.08714040368795395,
                    0.045309361070394516,
                    0.012729587964713573,
                    1
                ],
                "metallicFactor" : 0,
                "roughnessFactor" : 0.9285714626312256
            }
        },
        {
            "doubleSided" : true,
            "name" : "Rock",
            "pbrMetallicRoughness" : {
                "baseColorFactor" : [
                    0.05221828073263168,
                    0.049493204802274704,
                    0.049493204802274704,
                    1
                ],
                "metallicFactor" : 0,
                "roughnessFactor" : 0.9371428489685059
            }
        },
        {
            "alphaMode" : "BLEND",
            "doubleSided" : true,
            "name" : "Water",
            "pbrMetallicRoughness" : {
                "baseColorFactor" : [
                    0.026178615167737007,
                    0.042384255677461624,
                    0.06370245665311813,
                    1
                ],
                "metallicFactor" : 0,
                "roughnessFactor" : 0.19714300334453583
            }
        }
    ],
    "meshes" : [
        {
            "name" : "Plane",
            "primitives" : [
                {
                    "attributes" : {
                        "POSITION" : 0,
                        "NORMAL" : 1,
                        "TEXCOORD_0" : 2
                    },
                    "indices" : 3,
                    "material" : 0
                },
                {
                    "attributes" : {
                        "POSITION" : 4,
                        "NORMAL" : 5,
                        "TEXCOORD_0" : 6
                    },
                    "indices" : 7,
                    "material" : 1
                },
                {
                    "attributes" : {
                        "POSITION" : 8,
                        "NORMAL" : 9,
                        "TEXCOORD_0" : 10
                    },
                    "indices" : 11,
                    "material" : 2
                }
            ]
        },
        {
            "name" : "Plane.002",
            "primitives" : [
                {
                    "attributes" : {
                        "POSITION" : 12,
                        "NORMAL" : 13,
                        "TEXCOORD_0" : 14
                    },
                    "indices" : 15,
                    "material" : 3
                }
            ]
        }
    ],
    "accessors" : [
        {
            "bufferView" : 0,
            "componentType" : 5126,
            "count" : 2400,
            "max" : [
                20.117897033691406,
                4.913748741149902,
                21.388181686401367
            ],
            "min" : [
                -20.489652633666992,
                0.04847068339586258,
                -21.151670455932617
            ],
            "type" : "VEC3"
        },
        {
            "bufferView" : 1,
            "componentType" : 5126,
            "count" : 2400,
            "type" : "VEC3"
        },
        {
            "bufferView" : 2,
            "componentType" : 5126,
            "count" : 2400,
            "type" : "VEC2"
        },
        {
            "bufferView" : 3,
            "componentType" : 5123,
            "count" : 2400,
            "type" : "SCALAR"
        },
        {
            "bufferView" : 4,
            "componentType" : 5126,
            "count" : 705,
            "max" : [
                18.1489315032959,
                3.3596277236938477,
                19.94224739074707
            ],
            "min" : [
                11.160905838012695,
                -1.0250288248062134,
                -20.04368019104004
            ],
            "type" : "VEC3"
        },
        {
            "bufferView" : 5,
            "componentType" : 5126,
            "count" : 705,
            "type" : "VEC3"
        },
        {
            "bufferView" : 6,
            "componentType" : 5126,
            "count" : 705,
            "type" : "VEC2"
        },
        {
            "bufferView" : 7,
            "componentType" : 5123,
            "count" : 705,
            "type" : "SCALAR"
        },
        {
            "bufferView" : 8,
            "componentType" : 5126,
            "count" : 3768,
            "max" : [
                -18.03474998474121,
                9.195276260375977,
                20.10129165649414
            ],
            "min" : [
                -29.954153060913086,
                -3.7507636547088623,
                -22.27908706665039
            ],
            "type" : "VEC3"
        },
        {
            "bufferView" : 9,
            "componentType" : 5126,
            "count" : 3768,
            "type" : "VEC3"
        },
        {
            "bufferView" : 10,
            "componentType" : 5126,
            "count" : 3768,
            "type" : "VEC2"
        },
        {
            "bufferView" : 11,
            "componentType" : 5123,
            "count" : 3768,
            "type" : "SCALAR"
        },
        {
            "bufferView" : 12,
            "componentType" : 5126,
            "count" : 24262,
            "max" : [
                4.390147686004639,
                0.9396939277648926,
                19.841960906982422
            ],
            "min" : [
                -4.078144550323486,
                -2.4443044662475586,
                -21.229206085205078
            ],
            "type" : "VEC3"
        },
        {
            "bufferView" : 13,
            "componentType" : 5126,
            "count" : 24262,
            "type" : "VEC3"
        },
        {
            "bufferView" : 14,
            "componentType" : 5126,
            "count" : 24262,
            "type" : "VEC2"
        },
        {
            "bufferView" : 15,
            "componentType" : 5123,
            "count" : 24984,
            "type" : "SCALAR"
        }
    ],
    "bufferViews" : [
        {
            "buffer" : 0,
            "byteLength" : 28800,
            "byteOffset" : 0
        },
        {
            "buffer" : 0,
            "byteLength" : 28800,
            "byteOffset" : 28800
        },
        {
            "buffer" : 0,
            "byteLength" : 19200,
            "byteOffset" : 57600
        },
        {
            "buffer" : 0,
            "byteLength" : 4800,
            "byteOffset" : 76800
        },
        {
            "buffer" : 0,
            "byteLength" : 8460,
            "byteOffset" : 81600
        },
        {
            "buffer" : 0,
            "byteLength" : 8460,
            "byteOffset" : 90060
        },
        {
            "buffer" : 0,
            "byteLength" : 5640,
            "byteOffset" : 98520
        },
        {
            "buffer" : 0,
            "byteLength" : 1410,
            "byteOffset" : 104160
        },
        {
            "buffer" : 0,
            "byteLength" : 45216,
            "byteOffset" : 105572
        },
        {
            "buffer" : 0,
            "byteLength" : 45216,
            "byteOffset" : 150788
        },
        {
            "buffer" : 0,
            "byteLength" : 30144,
            "byteOffset" : 196004
        },
        {
            "buffer" : 0,
            "byteLength" : 7536,
            "byteOffset" : 226148
        },
        {
            "buffer" : 0,
            "byteLength" : 291144,
            "byteOffset" : 233684
        },
        {
            "buffer" : 0,
            "byteLength" : 291144,
            "byteOffset" : 524828
        },
        {
            "buffer" : 0,
            "byteLength" : 194096,
            "byteOffset" : 815972
        },
        {
            "buffer" : 0,
            "byteLength" : 49968,
            "byteOffset" : 1010068
        }
    ],
    "buffers" : [
        {
            "byteLength" : 1060036,
            "uri" : "data:application/octet-stream;base64,"
        }
    ]
}
