{
    "asset" : {
        "generator" : "Khronos glTF Blender I/O v1.0.5",
        "version" : "2.0"
    },
    "scene" : 0,
    "scenes" : [
        {
            "name" : "Scene",
            "nodes" : [
                0
            ]
        }
    ],
    "nodes" : [
        {
            "mesh" : 0,
            "name" : "Cube"
        }
    ],
    "materials" : [
        {
            "doubleSided" : true,
            "name" : "Plastic",
            "pbrMetallicRoughness" : {
                "baseColorFactor" : [
                    0.009018225595355034,
                    0.009018225595355034,
                    0.009018225595355034,
                    1
                ],
                "metallicFactor" : 0,
                "roughnessFactor" : 0.691428542137146
            }
        },
        {
            "doubleSided" : true,
            "name" : "Metal",
            "pbrMetallicRoughness" : {
                "baseColorFactor" : [
                    0.2597986161708832,
                    0.2597986161708832,
                    0.2597986161708832,
                    1
                ],
                "metallicFactor" : 1,
                "roughnessFactor" : 0.9028571248054504
            }
        },
        {
            "doubleSided" : true,
            "name" : "Glass",
            "pbrMetallicRoughness" : {
                "baseColorFactor" : [
                    0.08978642523288727,
                    0.11203734576702118,
                    0.14731401205062866,
                    1
                ],
                "metallicFactor" : 0,
                "roughnessFactor" : 0.05428570508956909
            }
        },
        {
            "doubleSided" : true,
            "name" : "Flash",
            "pbrMetallicRoughness" : {
                "baseColorFactor" : [
                    0.800000011920929,
                    0.800000011920929,
                    0.800000011920929,
                    1
                ],
                "metallicFactor" : 0,
                "roughnessFactor" : 0.5
            }
        }
    ],
    "meshes" : [
        {
            "name" : "Cube",
            "primitives" : [
                {
                    "attributes" : {
                        "POSITION" : 0,
                        "NORMAL" : 1,
                        "TEXCOORD_0" : 2
                    },
                    "indices" : 3,
                    "material" : 0
                },
                {
                    "attributes" : {
                        "POSITION" : 4,
                        "NORMAL" : 5,
                        "TEXCOORD_0" : 6
                    },
                    "indices" : 7,
                    "material" : 1
                },
                {
                    "attributes" : {
                        "POSITION" : 8,
                        "NORMAL" : 9,
                        "TEXCOORD_0" : 10
                    },
                    "indices" : 11,
                    "material" : 2
                },
                {
                    "attributes" : {
                        "POSITION" : 12,
                        "NORMAL" : 13,
                        "TEXCOORD_0" : 14
                    },
                    "indices" : 15,
                    "material" : 3
                }
            ]
        }
    ],
    "accessors" : [
        {
            "bufferView" : 0,
            "componentType" : 5126,
            "count" : 198,
            "max" : [
                1.2539896965026855,
                1.6993215084075928,
                2.0163235664367676
            ],
            "min" : [
                -0.8408435583114624,
                -1.5570592880249023,
                -2.0163235664367676
            ],
            "type" : "VEC3"
        },
        {
            "bufferView" : 1,
            "componentType" : 5126,
            "count" : 198,
            "type" : "VEC3"
        },
        {
            "bufferView" : 2,
            "componentType" : 5126,
            "count" : 198,
            "type" : "VEC2"
        },
        {
            "bufferView" : 3,
            "componentType" : 5123,
            "count" : 324,
            "type" : "SCALAR"
        },
        {
            "bufferView" : 4,
            "componentType" : 5126,
            "count" : 133,
            "max" : [
                0.8531535863876343,
                1.760544776916504,
                1.9181177616119385
            ],
            "min" : [
                -0.8408435583114624,
                0.8023270964622498,
                -0.4174076318740845
            ],
            "type" : "VEC3"
        },
        {
            "bufferView" : 5,
            "componentType" : 5126,
            "count" : 133,
            "type" : "VEC3"
        },
        {
            "bufferView" : 6,
            "componentType" : 5126,
            "count" : 133,
            "type" : "VEC2"
        },
        {
            "bufferView" : 7,
            "componentType" : 5123,
            "count" : 243,
            "type" : "SCALAR"
        },
        {
            "bufferView" : 8,
            "componentType" : 5126,
            "count" : 15,
            "max" : [
                1.1850064992904663,
                1.4003369808197021,
                0.8714386224746704
            ],
            "min" : [
                -0.7763060331344604,
                -0.7417581081390381,
                -0.8705480098724365
            ],
            "type" : "VEC3"
        },
        {
            "bufferView" : 9,
            "componentType" : 5126,
            "count" : 15,
            "type" : "VEC3"
        },
        {
            "bufferView" : 10,
            "componentType" : 5126,
            "count" : 15,
            "type" : "VEC2"
        },
        {
            "bufferView" : 11,
            "componentType" : 5123,
            "count" : 27,
            "type" : "SCALAR"
        },
        {
            "bufferView" : 12,
            "componentType" : 5126,
            "count" : 4,
            "max" : [
                0.8344522714614868,
                1.2974518537521362,
                -1.0513217449188232
            ],
            "min" : [
                0.8344522714614868,
                0.7842113971710205,
                -1.6881308555603027
            ],
            "type" : "VEC3"
        },
        {
            "bufferView" : 13,
            "componentType" : 5126,
            "count" : 4,
            "type" : "VEC3"
        },
        {
            "bufferView" : 14,
            "componentType" : 5126,
            "count" : 4,
            "type" : "VEC2"
        },
        {
            "bufferView" : 15,
            "componentType" : 5123,
            "count" : 6,
            "type" : "SCALAR"
        }
    ],
    "bufferViews" : [
        {
            "buffer" : 0,
            "byteLength" : 2376,
            "byteOffset" : 0
        },
        {
            "buffer" : 0,
            "byteLength" : 2376,
            "byteOffset" : 2376
        },
        {
            "buffer" : 0,
            "byteLength" : 1584,
            "byteOffset" : 4752
        },
        {
            "buffer" : 0,
            "byteLength" : 648,
            "byteOffset" : 6336
        },
        {
            "buffer" : 0,
            "byteLength" : 1596,
            "byteOffset" : 6984
        },
        {
            "buffer" : 0,
            "byteLength" : 1596,
            "byteOffset" : 8580
        },
        {
            "buffer" : 0,
            "byteLength" : 1064,
            "byteOffset" : 10176
        },
        {
            "buffer" : 0,
            "byteLength" : 486,
            "byteOffset" : 11240
        },
        {
            "buffer" : 0,
            "byteLength" : 180,
            "byteOffset" : 11728
        },
        {
            "buffer" : 0,
            "byteLength" : 180,
            "byteOffset" : 11908
        },
        {
            "buffer" : 0,
            "byteLength" : 120,
            "byteOffset" : 12088
        },
        {
            "buffer" : 0,
            "byteLength" : 54,
            "byteOffset" : 12208
        },
        {
            "buffer" : 0,
            "byteLength" : 48,
            "byteOffset" : 12264
        },
        {
            "buffer" : 0,
            "byteLength" : 48,
            "byteOffset" : 12312
        },
        {
            "buffer" : 0,
            "byteLength" : 32,
            "byteOffset" : 12360
        },
        {
            "buffer" : 0,
            "byteLength" : 12,
            "byteOffset" : 12392
        }
    ],
    "buffers" : [
        {
            "byteLength" : 12404,
            "uri" : "data:application/octet-stream;base64,"
        }
    ]
}
