{
    "asset" : {
        "generator" : "Khronos glTF Blender I/O v1.0.5",
        "version" : "2.0"
    },
    "scene" : 0,
    "scenes" : [
        {
            "name" : "Scene",
            "nodes" : [
                0
            ]
        }
    ],
    "nodes" : [
        {
            "mesh" : 0,
            "name" : "Cylinder"
        }
    ],
    "materials" : [
        {
            "doubleSided" : true,
            "name" : "Material.001",
            "pbrMetallicRoughness" : {
                "baseColorFactor" : [
                    0.007272838149219751,
                    0.06071961671113968,
                    0.00410450017079711,
                    1
                ],
                "metallicFactor" : 0,
                "roughnessFactor" : 0.9914286136627197
            }
        },
        {
            "doubleSided" : true,
            "name" : "Material.002",
            "pbrMetallicRoughness" : {
                "baseColorFactor" : [
                    0.1192757859826088,
                    0.03665873035788536,
                    0.011948691681027412,
                    1
                ],
                "metallicFactor" : 0,
                "roughnessFactor" : 0.9114285707473755
            }
        }
    ],
    "meshes" : [
        {
            "name" : "Cylinder.001",
            "primitives" : [
                {
                    "attributes" : {
                        "POSITION" : 0,
                        "NORMAL" : 1,
                        "TEXCOORD_0" : 2
                    },
                    "indices" : 3,
                    "material" : 0
                },
                {
                    "attributes" : {
                        "POSITION" : 4,
                        "NORMAL" : 5,
                        "TEXCOORD_0" : 6
                    },
                    "indices" : 7,
                    "material" : 1
                }
            ]
        }
    ],
    "accessors" : [
        {
            "bufferView" : 0,
            "componentType" : 5126,
            "count" : 600,
            "max" : [
                3.2297277450561523,
                4.322453498840332,
                3.3949756622314453
            ],
            "min" : [
                -3.227909564971924,
                -3.179375648498535,
                -3.3949756622314453
            ],
            "type" : "VEC3"
        },
        {
            "bufferView" : 1,
            "componentType" : 5126,
            "count" : 600,
            "type" : "VEC3"
        },
        {
            "bufferView" : 2,
            "componentType" : 5126,
            "count" : 600,
            "type" : "VEC2"
        },
        {
            "bufferView" : 3,
            "componentType" : 5123,
            "count" : 600,
            "type" : "SCALAR"
        },
        {
            "bufferView" : 4,
            "componentType" : 5126,
            "count" : 30,
            "max" : [
                0.4755282700061798,
                4.1521430015563965,
                0.4045085310935974
            ],
            "min" : [
                -0.4755282402038574,
                -5,
                -0.5
            ],
            "type" : "VEC3"
        },
        {
            "bufferView" : 5,
            "componentType" : 5126,
            "count" : 30,
            "type" : "VEC3"
        },
        {
            "bufferView" : 6,
            "componentType" : 5126,
            "count" : 30,
            "type" : "VEC2"
        },
        {
            "bufferView" : 7,
            "componentType" : 5123,
            "count" : 48,
            "type" : "SCALAR"
        }
    ],
    "bufferViews" : [
        {
            "buffer" : 0,
            "byteLength" : 7200,
            "byteOffset" : 0
        },
        {
            "buffer" : 0,
            "byteLength" : 7200,
            "byteOffset" : 7200
        },
        {
            "buffer" : 0,
            "byteLength" : 4800,
            "byteOffset" : 14400
        },
        {
            "buffer" : 0,
            "byteLength" : 1200,
            "byteOffset" : 19200
        },
        {
            "buffer" : 0,
            "byteLength" : 360,
            "byteOffset" : 20400
        },
        {
            "buffer" : 0,
            "byteLength" : 360,
            "byteOffset" : 20760
        },
        {
            "buffer" : 0,
            "byteLength" : 240,
            "byteOffset" : 21120
        },
        {
            "buffer" : 0,
            "byteLength" : 96,
            "byteOffset" : 21360
        }
    ],
    "buffers" : [
        {
            "byteLength" : 21456,
            "uri" : "data:application/octet-stream;base64,"
        }
    ]
}
