{
    "asset" : {
        "generator" : "Khronos glTF Blender I/O v1.0.5",
        "version" : "2.0"
    },
    "scene" : 0,
    "scenes" : [
        {
            "name" : "Scene",
            "nodes" : [
                0,
                1,
                2,
                3,
                4
            ]
        }
    ],
    "nodes" : [
        {
            "mesh" : 0,
            "name" : "Fuselage"
        },
        {
            "mesh" : 1,
            "name" : "Cargo",
            "translation" : [
                0,
                2.329493522644043,
                0
            ]
        },
        {
            "mesh" : 2,
            "name" : "Fins",
            "translation" : [
                0,
                -2.5051796436309814,
                0
            ]
        },
        {
            "mesh" : 3,
            "name" : "Tip",
            "translation" : [
                0,
                4.594291687011719,
                0
            ]
        },
        {
            "mesh" : 4,
            "name" : "Booster",
            "translation" : [
                0,
                -4.971262454986572,
                0
            ]
        }
    ],
    "materials" : [
        {
            "doubleSided" : true,
            "name" : "Body",
            "pbrMetallicRoughness" : {
                "baseColorFactor" : [
                    0.800000011920929,
                    0.800000011920929,
                    0.800000011920929,
                    1
                ],
                "metallicFactor" : 0.3085714280605316,
                "roughnessFactor" : 0.6657142639160156
            }
        },
        {
            "doubleSided" : true,
            "name" : "Screen",
            "pbrMetallicRoughness" : {
                "baseColorFactor" : [
                    0.008075851015746593,
                    0.008075851015746593,
                    0.008075851015746593,
                    1
                ],
                "metallicFactor" : 0.08571428805589676,
                "roughnessFactor" : 0.09428572654724121
            }
        },
        {
            "doubleSided" : true,
            "name" : "Seat",
            "pbrMetallicRoughness" : {
                "baseColorFactor" : [
                    0.0025794734247028828,
                    0.0024140560999512672,
                    0.0024667310062795877,
                    1
                ],
                "metallicFactor" : 0.10857142508029938,
                "roughnessFactor" : 0.7857142686843872
            }
        },
        {
            "doubleSided" : true,
            "name" : "Interior",
            "pbrMetallicRoughness" : {
                "baseColorFactor" : [
                    0.37574923038482666,
                    0.37574923038482666,
                    0.37574923038482666,
                    1
                ],
                "metallicFactor" : 0.49142858386039734,
                "roughnessFactor" : 0.5
            }
        },
        {
            "alphaMode" : "BLEND",
            "doubleSided" : true,
            "name" : "Glass",
            "pbrMetallicRoughness" : {
                "baseColorFactor" : [
                    0.800000011920929,
                    0.800000011920929,
                    0.800000011920929,
                    1
                ],
                "metallicFactor" : 0,
                "roughnessFactor" : 0
            }
        },
        {
            "doubleSided" : true,
            "name" : "Fin",
            "pbrMetallicRoughness" : {
                "baseColorFactor" : [
                    0.8000000715255737,
                    0.015784766525030136,
                    0.013550356961786747,
                    1
                ],
                "metallicFactor" : 0.17142857611179352,
                "roughnessFactor" : 0.6200000047683716
            }
        },
        {
            "doubleSided" : true,
            "name" : "Metal",
            "pbrMetallicRoughness" : {
                "baseColorFactor" : [
                    0.1844692975282669,
                    0.1844692975282669,
                    0.1844692975282669,
                    1
                ],
                "metallicFactor" : 1,
                "roughnessFactor" : 0.40285712480545044
            }
        }
    ],
    "meshes" : [
        {
            "name" : "Cylinder",
            "primitives" : [
                {
                    "attributes" : {
                        "POSITION" : 0,
                        "NORMAL" : 1,
                        "TEXCOORD_0" : 2
                    },
                    "indices" : 3,
                    "material" : 0
                }
            ]
        },
        {
            "name" : "Cylinder.001",
            "primitives" : [
                {
                    "attributes" : {
                        "POSITION" : 4,
                        "NORMAL" : 5,
                        "TEXCOORD_0" : 6
                    },
                    "indices" : 7,
                    "material" : 0
                },
                {
                    "attributes" : {
                        "POSITION" : 8,
                        "NORMAL" : 9,
                        "TEXCOORD_0" : 10
                    },
                    "indices" : 11,
                    "material" : 1
                },
                {
                    "attributes" : {
                        "POSITION" : 12,
                        "NORMAL" : 13,
                        "TEXCOORD_0" : 14
                    },
                    "indices" : 15,
                    "material" : 2
                },
                {
                    "attributes" : {
                        "POSITION" : 16,
                        "NORMAL" : 17,
                        "TEXCOORD_0" : 18
                    },
                    "indices" : 19,
                    "material" : 3
                },
                {
                    "attributes" : {
                        "POSITION" : 20,
                        "NORMAL" : 21,
                        "TEXCOORD_0" : 22
                    },
                    "indices" : 23,
                    "material" : 4
                }
            ]
        },
        {
            "name" : "Cylinder.002",
            "primitives" : [
                {
                    "attributes" : {
                        "POSITION" : 24,
                        "NORMAL" : 25,
                        "TEXCOORD_0" : 26
                    },
                    "indices" : 27,
                    "material" : 0
                },
                {
                    "attributes" : {
                        "POSITION" : 28,
                        "NORMAL" : 29,
                        "TEXCOORD_0" : 30
                    },
                    "indices" : 31,
                    "material" : 5
                }
            ]
        },
        {
            "name" : "Cylinder.003",
            "primitives" : [
                {
                    "attributes" : {
                        "POSITION" : 32,
                        "NORMAL" : 33,
                        "TEXCOORD_0" : 34
                    },
                    "indices" : 35,
                    "material" : 5
                }
            ]
        },
        {
            "name" : "Cylinder.004",
            "primitives" : [
                {
                    "attributes" : {
                        "POSITION" : 36,
                        "NORMAL" : 37,
                        "TEXCOORD_0" : 38
                    },
                    "indices" : 39,
                    "material" : 6
                }
            ]
        }
    ],
    "accessors" : [
        {
            "bufferView" : 0,
            "componentType" : 5126,
            "count" : 30,
            "max" : [
                0.9510565400123596,
                1,
                0.8090170621871948
            ],
            "min" : [
                -0.9510564804077148,
                -1,
                -1
            ],
            "type" : "VEC3"
        },
        {
            "bufferView" : 1,
            "componentType" : 5126,
            "count" : 30,
            "type" : "VEC3"
        },
        {
            "bufferView" : 2,
            "componentType" : 5126,
            "count" : 30,
            "type" : "VEC2"
        },
        {
            "bufferView" : 3,
            "componentType" : 5123,
            "count" : 48,
            "type" : "SCALAR"
        },
        {
            "bufferView" : 4,
            "componentType" : 5126,
            "count" : 149,
            "max" : [
                0.9510565400123596,
                1,
                0.8090170621871948
            ],
            "min" : [
                -0.9510564804077148,
                -1,
                -1
            ],
            "type" : "VEC3"
        },
        {
            "bufferView" : 5,
            "componentType" : 5126,
            "count" : 149,
            "type" : "VEC3"
        },
        {
            "bufferView" : 6,
            "componentType" : 5126,
            "count" : 149,
            "type" : "VEC2"
        },
        {
            "bufferView" : 7,
            "componentType" : 5123,
            "count" : 237,
            "type" : "SCALAR"
        },
        {
            "bufferView" : 8,
            "componentType" : 5126,
            "count" : 14,
            "max" : [
                0.5265979766845703,
                0.3720623850822449,
                0.6896886825561523
            ],
            "min" : [
                -0.5265980958938599,
                -0.3720623850822449,
                -0.642943263053894
            ],
            "type" : "VEC3"
        },
        {
            "bufferView" : 9,
            "componentType" : 5126,
            "count" : 14,
            "type" : "VEC3"
        },
        {
            "bufferView" : 10,
            "componentType" : 5126,
            "count" : 14,
            "type" : "VEC2"
        },
        {
            "bufferView" : 11,
            "componentType" : 5123,
            "count" : 24,
            "type" : "SCALAR"
        },
        {
            "bufferView" : 12,
            "componentType" : 5126,
            "count" : 24,
            "max" : [
                0.26848748326301575,
                -0.21512040495872498,
                -0.11736206710338593
            ],
            "min" : [
                -0.26848727464675903,
                -0.8743814826011658,
                -0.49738502502441406
            ],
            "type" : "VEC3"
        },
        {
            "bufferView" : 13,
            "componentType" : 5126,
            "count" : 24,
            "type" : "VEC3"
        },
        {
            "bufferView" : 14,
            "componentType" : 5126,
            "count" : 24,
            "type" : "VEC2"
        },
        {
            "bufferView" : 15,
            "componentType" : 5123,
            "count" : 36,
            "type" : "SCALAR"
        },
        {
            "bufferView" : 16,
            "componentType" : 5126,
            "count" : 115,
            "max" : [
                0.5265979766845703,
                0.49457478523254395,
                0.8090170621871948
            ],
            "min" : [
                -0.5265980958938599,
                -0.9668616056442261,
                -0.642943263053894
            ],
            "type" : "VEC3"
        },
        {
            "bufferView" : 17,
            "componentType" : 5126,
            "count" : 115,
            "type" : "VEC3"
        },
        {
            "bufferView" : 18,
            "componentType" : 5126,
            "count" : 115,
            "type" : "VEC2"
        },
        {
            "bufferView" : 19,
            "componentType" : 5123,
            "count" : 177,
            "type" : "SCALAR"
        },
        {
            "bufferView" : 20,
            "componentType" : 5126,
            "count" : 4,
            "max" : [
                0.5543422698974609,
                0.5212836265563965,
                0.8050150275230408
            ],
            "min" : [
                -0.5543422698974609,
                -0.5874009132385254,
                0.805014967918396
            ],
            "type" : "VEC3"
        },
        {
            "bufferView" : 21,
            "componentType" : 5126,
            "count" : 4,
            "type" : "VEC3"
        },
        {
            "bufferView" : 22,
            "componentType" : 5126,
            "count" : 4,
            "type" : "VEC2"
        },
        {
            "bufferView" : 23,
            "componentType" : 5123,
            "count" : 6,
            "type" : "SCALAR"
        },
        {
            "bufferView" : 24,
            "componentType" : 5126,
            "count" : 98,
            "max" : [
                2.277494430541992,
                1,
                2.379488468170166
            ],
            "min" : [
                -2.2485618591308594,
                -1,
                -1.952562928199768
            ],
            "type" : "VEC3"
        },
        {
            "bufferView" : 25,
            "componentType" : 5126,
            "count" : 98,
            "type" : "VEC3"
        },
        {
            "bufferView" : 26,
            "componentType" : 5126,
            "count" : 98,
            "type" : "VEC2"
        },
        {
            "bufferView" : 27,
            "componentType" : 5123,
            "count" : 156,
            "type" : "SCALAR"
        },
        {
            "bufferView" : 28,
            "componentType" : 5126,
            "count" : 72,
            "max" : [
                2.277494430541992,
                0.6776689291000366,
                2.379488468170166
            ],
            "min" : [
                -2.277494430541992,
                -0.9993867874145508,
                -1.9525632858276367
            ],
            "type" : "VEC3"
        },
        {
            "bufferView" : 29,
            "componentType" : 5126,
            "count" : 72,
            "type" : "VEC3"
        },
        {
            "bufferView" : 30,
            "componentType" : 5126,
            "count" : 72,
            "type" : "VEC2"
        },
        {
            "bufferView" : 31,
            "componentType" : 5123,
            "count" : 96,
            "type" : "SCALAR"
        },
        {
            "bufferView" : 32,
            "componentType" : 5126,
            "count" : 23,
            "max" : [
                0.9510565400123596,
                1,
                0.8090170621871948
            ],
            "min" : [
                -0.9510564804077148,
                -1,
                -1
            ],
            "type" : "VEC3"
        },
        {
            "bufferView" : 33,
            "componentType" : 5126,
            "count" : 23,
            "type" : "VEC3"
        },
        {
            "bufferView" : 34,
            "componentType" : 5126,
            "count" : 23,
            "type" : "VEC2"
        },
        {
            "bufferView" : 35,
            "componentType" : 5123,
            "count" : 33,
            "type" : "SCALAR"
        },
        {
            "bufferView" : 36,
            "componentType" : 5126,
            "count" : 50,
            "max" : [
                0.5518059730529785,
                0.7339644432067871,
                0.4693942070007324
            ],
            "min" : [
                -0.5518059134483337,
                0.10416041314601898,
                -0.580203115940094
            ],
            "type" : "VEC3"
        },
        {
            "bufferView" : 37,
            "componentType" : 5126,
            "count" : 50,
            "type" : "VEC3"
        },
        {
            "bufferView" : 38,
            "componentType" : 5126,
            "count" : 50,
            "type" : "VEC2"
        },
        {
            "bufferView" : 39,
            "componentType" : 5123,
            "count" : 78,
            "type" : "SCALAR"
        }
    ],
    "bufferViews" : [
        {
            "buffer" : 0,
            "byteLength" : 360,
            "byteOffset" : 0
        },
        {
            "buffer" : 0,
            "byteLength" : 360,
            "byteOffset" : 360
        },
        {
            "buffer" : 0,
            "byteLength" : 240,
            "byteOffset" : 720
        },
        {
            "buffer" : 0,
            "byteLength" : 96,
            "byteOffset" : 960
        },
        {
            "buffer" : 0,
            "byteLength" : 1788,
            "byteOffset" : 1056
        },
        {
            "buffer" : 0,
            "byteLength" : 1788,
            "byteOffset" : 2844
        },
        {
            "buffer" : 0,
            "byteLength" : 1192,
            "byteOffset" : 4632
        },
        {
            "buffer" : 0,
            "byteLength" : 474,
            "byteOffset" : 5824
        },
        {
            "buffer" : 0,
            "byteLength" : 168,
            "byteOffset" : 6300
        },
        {
            "buffer" : 0,
            "byteLength" : 168,
            "byteOffset" : 6468
        },
        {
            "buffer" : 0,
            "byteLength" : 112,
            "byteOffset" : 6636
        },
        {
            "buffer" : 0,
            "byteLength" : 48,
            "byteOffset" : 6748
        },
        {
            "buffer" : 0,
            "byteLength" : 288,
            "byteOffset" : 6796
        },
        {
            "buffer" : 0,
            "byteLength" : 288,
            "byteOffset" : 7084
        },
        {
            "buffer" : 0,
            "byteLength" : 192,
            "byteOffset" : 7372
        },
        {
            "buffer" : 0,
            "byteLength" : 72,
            "byteOffset" : 7564
        },
        {
            "buffer" : 0,
            "byteLength" : 1380,
            "byteOffset" : 7636
        },
        {
            "buffer" : 0,
            "byteLength" : 1380,
            "byteOffset" : 9016
        },
        {
            "buffer" : 0,
            "byteLength" : 920,
            "byteOffset" : 10396
        },
        {
            "buffer" : 0,
            "byteLength" : 354,
            "byteOffset" : 11316
        },
        {
            "buffer" : 0,
            "byteLength" : 48,
            "byteOffset" : 11672
        },
        {
            "buffer" : 0,
            "byteLength" : 48,
            "byteOffset" : 11720
        },
        {
            "buffer" : 0,
            "byteLength" : 32,
            "byteOffset" : 11768
        },
        {
            "buffer" : 0,
            "byteLength" : 12,
            "byteOffset" : 11800
        },
        {
            "buffer" : 0,
            "byteLength" : 1176,
            "byteOffset" : 11812
        },
        {
            "buffer" : 0,
            "byteLength" : 1176,
            "byteOffset" : 12988
        },
        {
            "buffer" : 0,
            "byteLength" : 784,
            "byteOffset" : 14164
        },
        {
            "buffer" : 0,
            "byteLength" : 312,
            "byteOffset" : 14948
        },
        {
            "buffer" : 0,
            "byteLength" : 864,
            "byteOffset" : 15260
        },
        {
            "buffer" : 0,
            "byteLength" : 864,
            "byteOffset" : 16124
        },
        {
            "buffer" : 0,
            "byteLength" : 576,
            "byteOffset" : 16988
        },
        {
            "buffer" : 0,
            "byteLength" : 192,
            "byteOffset" : 17564
        },
        {
            "buffer" : 0,
            "byteLength" : 276,
            "byteOffset" : 17756
        },
        {
            "buffer" : 0,
            "byteLength" : 276,
            "byteOffset" : 18032
        },
        {
            "buffer" : 0,
            "byteLength" : 184,
            "byteOffset" : 18308
        },
        {
            "buffer" : 0,
            "byteLength" : 66,
            "byteOffset" : 18492
        },
        {
            "buffer" : 0,
            "byteLength" : 600,
            "byteOffset" : 18560
        },
        {
            "buffer" : 0,
            "byteLength" : 600,
            "byteOffset" : 19160
        },
        {
            "buffer" : 0,
            "byteLength" : 400,
            "byteOffset" : 19760
        },
        {
            "buffer" : 0,
            "byteLength" : 156,
            "byteOffset" : 20160
        }
    ],
    "buffers" : [
        {
            "byteLength" : 20316,
            "uri" : "data:application/octet-stream;base64,"
        }
    ]
}
