{
    "asset" : {
        "generator" : "Khronos glTF Blender I/O v1.0.5",
        "version" : "2.0"
    },
    "scene" : 0,
    "scenes" : [
        {
            "name" : "Scene",
            "nodes" : [
                0
            ]
        }
    ],
    "nodes" : [
        {
            "mesh" : 0,
            "name" : "Cylinder",
            "rotation" : [
                -0.09258808195590973,
                -0.0925879180431366,
                -0.7010188102722168,
                0.7010189294815063
            ]
        }
    ],
    "materials" : [
        {
            "doubleSided" : true,
            "name" : "Wood",
            "pbrMetallicRoughness" : {
                "baseColorFactor" : [
                    0.06680671870708466,
                    0.016915112733840942,
                    0.004086971748620272,
                    1
                ],
                "metallicFactor" : 0,
                "roughnessFactor" : 0.9114286303520203
            }
        },
        {
            "doubleSided" : true,
            "name" : "Light Wood",
            "pbrMetallicRoughness" : {
                "baseColorFactor" : [
                    0.13285328447818756,
                    0.07096047699451447,
                    0.03841843456029892,
                    1
                ],
                "metallicFactor" : 0,
                "roughnessFactor" : 0.7571428418159485
            }
        },
        {
            "doubleSided" : true,
            "name" : "Dark Wood",
            "pbrMetallicRoughness" : {
                "baseColorFactor" : [
                    0.018831433728337288,
                    0.00817636027932167,
                    0.0025442878250032663,
                    1
                ],
                "metallicFactor" : 0,
                "roughnessFactor" : 0.9114285707473755
            }
        }
    ],
    "meshes" : [
        {
            "name" : "Cylinder",
            "primitives" : [
                {
                    "attributes" : {
                        "POSITION" : 0,
                        "NORMAL" : 1,
                        "TEXCOORD_0" : 2
                    },
                    "indices" : 3,
                    "material" : 0
                },
                {
                    "attributes" : {
                        "POSITION" : 4,
                        "NORMAL" : 5,
                        "TEXCOORD_0" : 6
                    },
                    "indices" : 7,
                    "material" : 1
                },
                {
                    "attributes" : {
                        "POSITION" : 8,
                        "NORMAL" : 9,
                        "TEXCOORD_0" : 10
                    },
                    "indices" : 11,
                    "material" : 2
                }
            ]
        }
    ],
    "accessors" : [
        {
            "bufferView" : 0,
            "componentType" : 5126,
            "count" : 703,
            "max" : [
                0.9510565400123596,
                1,
                0.8090170621871948
            ],
            "min" : [
                -0.9510564804077148,
                -1,
                -1
            ],
            "type" : "VEC3"
        },
        {
            "bufferView" : 1,
            "componentType" : 5126,
            "count" : 703,
            "type" : "VEC3"
        },
        {
            "bufferView" : 2,
            "componentType" : 5126,
            "count" : 703,
            "type" : "VEC2"
        },
        {
            "bufferView" : 3,
            "componentType" : 5123,
            "count" : 1209,
            "type" : "SCALAR"
        },
        {
            "bufferView" : 4,
            "componentType" : 5126,
            "count" : 10,
            "max" : [
                0.7876366972923279,
                0.9576501846313477,
                0.6700038313865662
            ],
            "min" : [
                -0.7876366376876831,
                -0.9761555194854736,
                -0.8281702399253845
            ],
            "type" : "VEC3"
        },
        {
            "bufferView" : 5,
            "componentType" : 5126,
            "count" : 10,
            "type" : "VEC3"
        },
        {
            "bufferView" : 6,
            "componentType" : 5126,
            "count" : 10,
            "type" : "VEC2"
        },
        {
            "bufferView" : 7,
            "componentType" : 5123,
            "count" : 18,
            "type" : "SCALAR"
        },
        {
            "bufferView" : 8,
            "componentType" : 5126,
            "count" : 131,
            "max" : [
                0.7457324266433716,
                1,
                0.8010630011558533
            ],
            "min" : [
                -0.8232905864715576,
                -1,
                -0.9174363017082214
            ],
            "type" : "VEC3"
        },
        {
            "bufferView" : 9,
            "componentType" : 5126,
            "count" : 131,
            "type" : "VEC3"
        },
        {
            "bufferView" : 10,
            "componentType" : 5126,
            "count" : 131,
            "type" : "VEC2"
        },
        {
            "bufferView" : 11,
            "componentType" : 5123,
            "count" : 309,
            "type" : "SCALAR"
        }
    ],
    "bufferViews" : [
        {
            "buffer" : 0,
            "byteLength" : 8436,
            "byteOffset" : 0
        },
        {
            "buffer" : 0,
            "byteLength" : 8436,
            "byteOffset" : 8436
        },
        {
            "buffer" : 0,
            "byteLength" : 5624,
            "byteOffset" : 16872
        },
        {
            "buffer" : 0,
            "byteLength" : 2418,
            "byteOffset" : 22496
        },
        {
            "buffer" : 0,
            "byteLength" : 120,
            "byteOffset" : 24916
        },
        {
            "buffer" : 0,
            "byteLength" : 120,
            "byteOffset" : 25036
        },
        {
            "buffer" : 0,
            "byteLength" : 80,
            "byteOffset" : 25156
        },
        {
            "buffer" : 0,
            "byteLength" : 36,
            "byteOffset" : 25236
        },
        {
            "buffer" : 0,
            "byteLength" : 1572,
            "byteOffset" : 25272
        },
        {
            "buffer" : 0,
            "byteLength" : 1572,
            "byteOffset" : 26844
        },
        {
            "buffer" : 0,
            "byteLength" : 1048,
            "byteOffset" : 28416
        },
        {
            "buffer" : 0,
            "byteLength" : 618,
            "byteOffset" : 29464
        }
    ],
    "buffers" : [
        {
            "byteLength" : 30084,
            "uri" : "data:application/octet-stream;base64,"
        }
    ]
}
