{
    "asset" : {
        "generator" : "Khronos glTF Blender I/O v1.0.5",
        "version" : "2.0"
    },
    "scene" : 0,
    "scenes" : [
        {
            "name" : "Scene",
            "nodes" : [
                0,
                8
            ]
        }
    ],
    "nodes" : [
        {
            "mesh" : 0,
            "name" : "Handle"
        },
        {
            "name" : "Bone.005",
            "rotation" : [
                -2.842170943040401e-14,
                -5.2506496668451065e-15,
                5.40750111043529e-15,
                1
            ],
            "scale" : [
                1,
                0.9999999403953552,
                1
            ],
            "translation" : [
                2.1864457401717108e-13,
                3.2384490966796875,
                4.853571971413784e-14
            ]
        },
        {
            "children" : [
                1
            ],
            "name" : "Bone.004",
            "rotation" : [
                1.065814188343445e-14,
                8.960209283521633e-15,
                5.407494757688185e-15,
                1
            ],
            "translation" : [
                6.027052771792607e-15,
                3.853343963623047,
                5.762133391956636e-14
            ]
        },
        {
            "children" : [
                2
            ],
            "name" : "Bone.003",
            "rotation" : [
                7.105427357601002e-15,
                -5.250647125746265e-15,
                -8.803359110480871e-15,
                1
            ],
            "translation" : [
                1.890799799716958e-14,
                3.84104585647583,
                9.001824351033416e-14
            ]
        },
        {
            "children" : [
                3
            ],
            "name" : "Bone.002",
            "rotation" : [
                -1.4210853868169056e-14,
                8.960207589455739e-15,
                1.9618350319923136e-14,
                1
            ],
            "translation" : [
                -2.4732725091049235e-14,
                4.56498384475708,
                3.668372300803108e-14
            ]
        },
        {
            "children" : [
                4
            ],
            "name" : "Bone.001",
            "rotation" : [
                2.6626754134895236e-08,
                -1.5779566808760137e-07,
                -3.85863820895338e-08,
                1
            ],
            "scale" : [
                1,
                0.9999999403953552,
                1
            ],
            "translation" : [
                2.0869782207185057e-14,
                2.5230042934417725,
                2.8579230453538995e-16
            ]
        },
        {
            "children" : [
                5
            ],
            "name" : "Bone",
            "rotation" : [
                5.007866121786719e-08,
                6.044206202204805e-08,
                -5.8767213317878486e-08,
                1
            ],
            "translation" : [
                -2.0600745642695983e-07,
                -1.058037281036377,
                -1.42156650895231e-07
            ]
        },
        {
            "mesh" : 1,
            "name" : "Pole",
            "skin" : 0
        },
        {
            "children" : [
                7,
                6
            ],
            "name" : "Armature",
            "rotation" : [
                0,
                0,
                -0.7071067094802856,
                0.7071068286895752
            ]
        }
    ],
    "animations" : [
        {
            "channels" : [
                {
                    "sampler" : 0,
                    "target" : {
                        "node" : 6,
                        "path" : "translation"
                    }
                },
                {
                    "sampler" : 1,
                    "target" : {
                        "node" : 6,
                        "path" : "rotation"
                    }
                },
                {
                    "sampler" : 2,
                    "target" : {
                        "node" : 6,
                        "path" : "scale"
                    }
                },
                {
                    "sampler" : 3,
                    "target" : {
                        "node" : 5,
                        "path" : "translation"
                    }
                },
                {
                    "sampler" : 4,
                    "target" : {
                        "node" : 5,
                        "path" : "rotation"
                    }
                },
                {
                    "sampler" : 5,
                    "target" : {
                        "node" : 5,
                        "path" : "scale"
                    }
                },
                {
                    "sampler" : 6,
                    "target" : {
                        "node" : 4,
                        "path" : "translation"
                    }
                },
                {
                    "sampler" : 7,
                    "target" : {
                        "node" : 4,
                        "path" : "rotation"
                    }
                },
                {
                    "sampler" : 8,
                    "target" : {
                        "node" : 4,
                        "path" : "scale"
                    }
                },
                {
                    "sampler" : 9,
                    "target" : {
                        "node" : 3,
                        "path" : "translation"
                    }
                },
                {
                    "sampler" : 10,
                    "target" : {
                        "node" : 3,
                        "path" : "rotation"
                    }
                },
                {
                    "sampler" : 11,
                    "target" : {
                        "node" : 3,
                        "path" : "scale"
                    }
                },
                {
                    "sampler" : 12,
                    "target" : {
                        "node" : 2,
                        "path" : "translation"
                    }
                },
                {
                    "sampler" : 13,
                    "target" : {
                        "node" : 2,
                        "path" : "rotation"
                    }
                },
                {
                    "sampler" : 14,
                    "target" : {
                        "node" : 2,
                        "path" : "scale"
                    }
                },
                {
                    "sampler" : 15,
                    "target" : {
                        "node" : 1,
                        "path" : "translation"
                    }
                },
                {
                    "sampler" : 16,
                    "target" : {
                        "node" : 1,
                        "path" : "rotation"
                    }
                },
                {
                    "sampler" : 17,
                    "target" : {
                        "node" : 1,
                        "path" : "scale"
                    }
                }
            ],
            "name" : "ArmatureAction",
            "samplers" : [
                {
                    "input" : 21,
                    "interpolation" : "LINEAR",
                    "output" : 22
                },
                {
                    "input" : 21,
                    "interpolation" : "LINEAR",
                    "output" : 23
                },
                {
                    "input" : 21,
                    "interpolation" : "LINEAR",
                    "output" : 24
                },
                {
                    "input" : 21,
                    "interpolation" : "LINEAR",
                    "output" : 25
                },
                {
                    "input" : 21,
                    "interpolation" : "LINEAR",
                    "output" : 26
                },
                {
                    "input" : 21,
                    "interpolation" : "LINEAR",
                    "output" : 27
                },
                {
                    "input" : 21,
                    "interpolation" : "LINEAR",
                    "output" : 28
                },
                {
                    "input" : 21,
                    "interpolation" : "LINEAR",
                    "output" : 29
                },
                {
                    "input" : 21,
                    "interpolation" : "LINEAR",
                    "output" : 30
                },
                {
                    "input" : 21,
                    "interpolation" : "LINEAR",
                    "output" : 31
                },
                {
                    "input" : 21,
                    "interpolation" : "LINEAR",
                    "output" : 32
                },
                {
                    "input" : 21,
                    "interpolation" : "LINEAR",
                    "output" : 33
                },
                {
                    "input" : 21,
                    "interpolation" : "LINEAR",
                    "output" : 34
                },
                {
                    "input" : 21,
                    "interpolation" : "LINEAR",
                    "output" : 35
                },
                {
                    "input" : 21,
                    "interpolation" : "LINEAR",
                    "output" : 36
                },
                {
                    "input" : 21,
                    "interpolation" : "LINEAR",
                    "output" : 37
                },
                {
                    "input" : 21,
                    "interpolation" : "LINEAR",
                    "output" : 38
                },
                {
                    "input" : 21,
                    "interpolation" : "LINEAR",
                    "output" : 39
                }
            ]
        }
    ],
    "materials" : [
        {
            "doubleSided" : true,
            "name" : "Metal",
            "pbrMetallicRoughness" : {
                "baseColorFactor" : [
                    0.0015475156251341105,
                    0.0015475156251341105,
                    0.0015475156251341105,
                    1
                ],
                "metallicFactor" : 0.9085714817047119,
                "roughnessFactor" : 0.3857142925262451
            }
        },
        {
            "doubleSided" : true,
            "name" : "Handle",
            "pbrMetallicRoughness" : {
                "baseColorFactor" : [
                    0.05496896058320999,
                    0.01456371508538723,
                    0.003141552209854126,
                    1
                ],
                "metallicFactor" : 0,
                "roughnessFactor" : 0.8828571438789368
            }
        }
    ],
    "meshes" : [
        {
            "name" : "Cylinder.002",
            "primitives" : [
                {
                    "attributes" : {
                        "POSITION" : 0,
                        "NORMAL" : 1,
                        "TEXCOORD_0" : 2
                    },
                    "indices" : 3,
                    "material" : 0
                },
                {
                    "attributes" : {
                        "POSITION" : 4,
                        "NORMAL" : 5,
                        "TEXCOORD_0" : 6
                    },
                    "indices" : 7,
                    "material" : 1
                }
            ]
        },
        {
            "name" : "Cylinder",
            "primitives" : [
                {
                    "attributes" : {
                        "POSITION" : 8,
                        "NORMAL" : 9,
                        "TEXCOORD_0" : 10,
                        "JOINTS_0" : 11,
                        "WEIGHTS_0" : 12
                    },
                    "indices" : 13,
                    "material" : 0
                },
                {
                    "attributes" : {
                        "POSITION" : 14,
                        "NORMAL" : 15,
                        "TEXCOORD_0" : 16,
                        "JOINTS_0" : 17,
                        "WEIGHTS_0" : 18
                    },
                    "indices" : 19,
                    "material" : 1
                }
            ]
        }
    ],
    "skins" : [
        {
            "inverseBindMatrices" : 20,
            "joints" : [
                6,
                5,
                4,
                3,
                2,
                1
            ],
            "name" : "Armature"
        }
    ],
    "accessors" : [
        {
            "bufferView" : 0,
            "componentType" : 5126,
            "count" : 90,
            "max" : [
                0.4201626777648926,
                0.3042236268520355,
                0.7751667499542236
            ],
            "min" : [
                0.03603935241699219,
                0.02118142694234848,
                0.32459309697151184
            ],
            "type" : "VEC3"
        },
        {
            "bufferView" : 1,
            "componentType" : 5126,
            "count" : 90,
            "type" : "VEC3"
        },
        {
            "bufferView" : 2,
            "componentType" : 5126,
            "count" : 90,
            "type" : "VEC2"
        },
        {
            "bufferView" : 3,
            "componentType" : 5123,
            "count" : 138,
            "type" : "SCALAR"
        },
        {
            "bufferView" : 4,
            "componentType" : 5126,
            "count" : 16,
            "max" : [
                0.1343064308166504,
                0.294930636882782,
                0.7465659379959106
            ],
            "min" : [
                0.03603935241699219,
                0.16484490036964417,
                0.6618545055389404
            ],
            "type" : "VEC3"
        },
        {
            "bufferView" : 5,
            "componentType" : 5126,
            "count" : 16,
            "type" : "VEC3"
        },
        {
            "bufferView" : 6,
            "componentType" : 5126,
            "count" : 16,
            "type" : "VEC2"
        },
        {
            "bufferView" : 7,
            "componentType" : 5123,
            "count" : 24,
            "type" : "SCALAR"
        },
        {
            "bufferView" : 8,
            "componentType" : 5126,
            "count" : 230,
            "max" : [
                19.780803680419922,
                0.37951621413230896,
                0.40752947330474854
            ],
            "min" : [
                -1.056921362876892,
                -0.29209840297698975,
                -0.266481876373291
            ],
            "type" : "VEC3"
        },
        {
            "bufferView" : 9,
            "componentType" : 5126,
            "count" : 230,
            "type" : "VEC3"
        },
        {
            "bufferView" : 10,
            "componentType" : 5126,
            "count" : 230,
            "type" : "VEC2"
        },
        {
            "bufferView" : 11,
            "componentType" : 5123,
            "count" : 230,
            "type" : "VEC4"
        },
        {
            "bufferView" : 12,
            "componentType" : 5126,
            "count" : 230,
            "type" : "VEC4"
        },
        {
            "bufferView" : 13,
            "componentType" : 5123,
            "count" : 348,
            "type" : "SCALAR"
        },
        {
            "bufferView" : 14,
            "componentType" : 5126,
            "count" : 108,
            "max" : [
                1.4494218826293945,
                0.37951621413230896,
                0.40752947330474854
            ],
            "min" : [
                -1.056921362876892,
                -0.29209840297698975,
                -0.266481876373291
            ],
            "type" : "VEC3"
        },
        {
            "bufferView" : 15,
            "componentType" : 5126,
            "count" : 108,
            "type" : "VEC3"
        },
        {
            "bufferView" : 16,
            "componentType" : 5126,
            "count" : 108,
            "type" : "VEC2"
        },
        {
            "bufferView" : 17,
            "componentType" : 5123,
            "count" : 108,
            "type" : "VEC4"
        },
        {
            "bufferView" : 18,
            "componentType" : 5126,
            "count" : 108,
            "type" : "VEC4"
        },
        {
            "bufferView" : 19,
            "componentType" : 5123,
            "count" : 168,
            "type" : "SCALAR"
        },
        {
            "bufferView" : 20,
            "componentType" : 5126,
            "count" : 6,
            "type" : "MAT4"
        },
        {
            "bufferView" : 21,
            "componentType" : 5126,
            "count" : 20,
            "max" : [
                0.8333333333333334
            ],
            "min" : [
                0.041666666666666664
            ],
            "type" : "SCALAR"
        },
        {
            "bufferView" : 22,
            "componentType" : 5126,
            "count" : 20,
            "type" : "VEC3"
        },
        {
            "bufferView" : 23,
            "componentType" : 5126,
            "count" : 20,
            "type" : "VEC4"
        },
        {
            "bufferView" : 24,
            "componentType" : 5126,
            "count" : 20,
            "type" : "VEC3"
        },
        {
            "bufferView" : 25,
            "componentType" : 5126,
            "count" : 20,
            "type" : "VEC3"
        },
        {
            "bufferView" : 26,
            "componentType" : 5126,
            "count" : 20,
            "type" : "VEC4"
        },
        {
            "bufferView" : 27,
            "componentType" : 5126,
            "count" : 20,
            "type" : "VEC3"
        },
        {
            "bufferView" : 28,
            "componentType" : 5126,
            "count" : 20,
            "type" : "VEC3"
        },
        {
            "bufferView" : 29,
            "componentType" : 5126,
            "count" : 20,
            "type" : "VEC4"
        },
        {
            "bufferView" : 30,
            "componentType" : 5126,
            "count" : 20,
            "type" : "VEC3"
        },
        {
            "bufferView" : 31,
            "componentType" : 5126,
            "count" : 20,
            "type" : "VEC3"
        },
        {
            "bufferView" : 32,
            "componentType" : 5126,
            "count" : 20,
            "type" : "VEC4"
        },
        {
            "bufferView" : 33,
            "componentType" : 5126,
            "count" : 20,
            "type" : "VEC3"
        },
        {
            "bufferView" : 34,
            "componentType" : 5126,
            "count" : 20,
            "type" : "VEC3"
        },
        {
            "bufferView" : 35,
            "componentType" : 5126,
            "count" : 20,
            "type" : "VEC4"
        },
        {
            "bufferView" : 36,
            "componentType" : 5126,
            "count" : 20,
            "type" : "VEC3"
        },
        {
            "bufferView" : 37,
            "componentType" : 5126,
            "count" : 20,
            "type" : "VEC3"
        },
        {
            "bufferView" : 38,
            "componentType" : 5126,
            "count" : 20,
            "type" : "VEC4"
        },
        {
            "bufferView" : 39,
            "componentType" : 5126,
            "count" : 20,
            "type" : "VEC3"
        }
    ],
    "bufferViews" : [
        {
            "buffer" : 0,
            "byteLength" : 1080,
            "byteOffset" : 0
        },
        {
            "buffer" : 0,
            "byteLength" : 1080,
            "byteOffset" : 1080
        },
        {
            "buffer" : 0,
            "byteLength" : 720,
            "byteOffset" : 2160
        },
        {
            "buffer" : 0,
            "byteLength" : 276,
            "byteOffset" : 2880
        },
        {
            "buffer" : 0,
            "byteLength" : 192,
            "byteOffset" : 3156
        },
        {
            "buffer" : 0,
            "byteLength" : 192,
            "byteOffset" : 3348
        },
        {
            "buffer" : 0,
            "byteLength" : 128,
            "byteOffset" : 3540
        },
        {
            "buffer" : 0,
            "byteLength" : 48,
            "byteOffset" : 3668
        },
        {
            "buffer" : 0,
            "byteLength" : 2760,
            "byteOffset" : 3716
        },
        {
            "buffer" : 0,
            "byteLength" : 2760,
            "byteOffset" : 6476
        },
        {
            "buffer" : 0,
            "byteLength" : 1840,
            "byteOffset" : 9236
        },
        {
            "buffer" : 0,
            "byteLength" : 1840,
            "byteOffset" : 11076
        },
        {
            "buffer" : 0,
            "byteLength" : 3680,
            "byteOffset" : 12916
        },
        {
            "buffer" : 0,
            "byteLength" : 696,
            "byteOffset" : 16596
        },
        {
            "buffer" : 0,
            "byteLength" : 1296,
            "byteOffset" : 17292
        },
        {
            "buffer" : 0,
            "byteLength" : 1296,
            "byteOffset" : 18588
        },
        {
            "buffer" : 0,
            "byteLength" : 864,
            "byteOffset" : 19884
        },
        {
            "buffer" : 0,
            "byteLength" : 864,
            "byteOffset" : 20748
        },
        {
            "buffer" : 0,
            "byteLength" : 1728,
            "byteOffset" : 21612
        },
        {
            "buffer" : 0,
            "byteLength" : 336,
            "byteOffset" : 23340
        },
        {
            "buffer" : 0,
            "byteLength" : 384,
            "byteOffset" : 23676
        },
        {
            "buffer" : 0,
            "byteLength" : 80,
            "byteOffset" : 24060
        },
        {
            "buffer" : 0,
            "byteLength" : 240,
            "byteOffset" : 24140
        },
        {
            "buffer" : 0,
            "byteLength" : 320,
            "byteOffset" : 24380
        },
        {
            "buffer" : 0,
            "byteLength" : 240,
            "byteOffset" : 24700
        },
        {
            "buffer" : 0,
            "byteLength" : 240,
            "byteOffset" : 24940
        },
        {
            "buffer" : 0,
            "byteLength" : 320,
            "byteOffset" : 25180
        },
        {
            "buffer" : 0,
            "byteLength" : 240,
            "byteOffset" : 25500
        },
        {
            "buffer" : 0,
            "byteLength" : 240,
            "byteOffset" : 25740
        },
        {
            "buffer" : 0,
            "byteLength" : 320,
            "byteOffset" : 25980
        },
        {
            "buffer" : 0,
            "byteLength" : 240,
            "byteOffset" : 26300
        },
        {
            "buffer" : 0,
            "byteLength" : 240,
            "byteOffset" : 26540
        },
        {
            "buffer" : 0,
            "byteLength" : 320,
            "byteOffset" : 26780
        },
        {
            "buffer" : 0,
            "byteLength" : 240,
            "byteOffset" : 27100
        },
        {
            "buffer" : 0,
            "byteLength" : 240,
            "byteOffset" : 27340
        },
        {
            "buffer" : 0,
            "byteLength" : 320,
            "byteOffset" : 27580
        },
        {
            "buffer" : 0,
            "byteLength" : 240,
            "byteOffset" : 27900
        },
        {
            "buffer" : 0,
            "byteLength" : 240,
            "byteOffset" : 28140
        },
        {
            "buffer" : 0,
            "byteLength" : 320,
            "byteOffset" : 28380
        },
        {
            "buffer" : 0,
            "byteLength" : 240,
            "byteOffset" : 28700
        }
    ],
    "buffers" : [
        {
            "byteLength" : 28940,
            "uri" : "data:application/octet-stream;base64,"
        }
    ]
}
