{
    "asset" : {
        "generator" : "Khronos glTF Blender I/O v1.0.5",
        "version" : "2.0"
    },
    "scene" : 0,
    "scenes" : [
        {
            "name" : "Scene",
            "nodes" : [
                0
            ]
        }
    ],
    "nodes" : [
        {
            "mesh" : 0,
            "name" : "Cylinder"
        }
    ],
    "materials" : [
        {
            "alphaMode" : "BLEND",
            "doubleSided" : true,
            "name" : "Glass",
            "pbrMetallicRoughness" : {
                "baseColorFactor" : [
                    0.800000011920929,
                    0.800000011920929,
                    0.800000011920929,
                    0.27142858505249023
                ],
                "metallicFactor" : 0,
                "roughnessFactor" : 0.5
            }
        },
        {
            "doubleSided" : true,
            "name" : "Jar Lid",
            "pbrMetallicRoughness" : {
                "baseColorFactor" : [
                    0.06371130049228668,
                    0.054092273116111755,
                    0.04819893091917038,
                    1
                ],
                "metallicFactor" : 0.8571428656578064,
                "roughnessFactor" : 0.46000003814697266
            }
        }
    ],
    "meshes" : [
        {
            "name" : "Cylinder",
            "primitives" : [
                {
                    "attributes" : {
                        "POSITION" : 0,
                        "NORMAL" : 1,
                        "TEXCOORD_0" : 2
                    },
                    "indices" : 3,
                    "material" : 0
                },
                {
                    "attributes" : {
                        "POSITION" : 4,
                        "NORMAL" : 5,
                        "TEXCOORD_0" : 6
                    },
                    "indices" : 7,
                    "material" : 1
                }
            ]
        }
    ],
    "accessors" : [
        {
            "bufferView" : 0,
            "componentType" : 5126,
            "count" : 65,
            "max" : [
                0.9510565400123596,
                1.1373721361160278,
                0.8090170621871948
            ],
            "min" : [
                -0.9510564804077148,
                -1.1007230281829834,
                -1
            ],
            "type" : "VEC3"
        },
        {
            "bufferView" : 1,
            "componentType" : 5126,
            "count" : 65,
            "type" : "VEC3"
        },
        {
            "bufferView" : 2,
            "componentType" : 5126,
            "count" : 65,
            "type" : "VEC2"
        },
        {
            "bufferView" : 3,
            "componentType" : 5123,
            "count" : 99,
            "type" : "SCALAR"
        },
        {
            "bufferView" : 4,
            "componentType" : 5126,
            "count" : 25,
            "max" : [
                0.8262073397636414,
                1.3615416288375854,
                0.702813982963562
            ],
            "min" : [
                -0.8262072801589966,
                1.1373721361160278,
                -0.8687257766723633
            ],
            "type" : "VEC3"
        },
        {
            "bufferView" : 5,
            "componentType" : 5126,
            "count" : 25,
            "type" : "VEC3"
        },
        {
            "bufferView" : 6,
            "componentType" : 5126,
            "count" : 25,
            "type" : "VEC2"
        },
        {
            "bufferView" : 7,
            "componentType" : 5123,
            "count" : 39,
            "type" : "SCALAR"
        }
    ],
    "bufferViews" : [
        {
            "buffer" : 0,
            "byteLength" : 780,
            "byteOffset" : 0
        },
        {
            "buffer" : 0,
            "byteLength" : 780,
            "byteOffset" : 780
        },
        {
            "buffer" : 0,
            "byteLength" : 520,
            "byteOffset" : 1560
        },
        {
            "buffer" : 0,
            "byteLength" : 198,
            "byteOffset" : 2080
        },
        {
            "buffer" : 0,
            "byteLength" : 300,
            "byteOffset" : 2280
        },
        {
            "buffer" : 0,
            "byteLength" : 300,
            "byteOffset" : 2580
        },
        {
            "buffer" : 0,
            "byteLength" : 200,
            "byteOffset" : 2880
        },
        {
            "buffer" : 0,
            "byteLength" : 78,
            "byteOffset" : 3080
        }
    ],
    "buffers" : [
        {
            "byteLength" : 3160,
            "uri" : "data:application/octet-stream;base64,"
        }
    ]
}
