{
    "asset" : {
        "generator" : "Khronos glTF Blender I/O v1.0.5",
        "version" : "2.0"
    },
    "scene" : 0,
    "scenes" : [
        {
            "name" : "Scene",
            "nodes" : [
                5
            ]
        }
    ],
    "nodes" : [
        {
            "name" : "Bone.001",
            "rotation" : [
                6.717939982081589e-08,
                -9.735359896012596e-08,
                -9.735359896012596e-08,
                1
            ],
            "translation" : [
                0,
                1,
                0
            ]
        },
        {
            "children" : [
                0
            ],
            "name" : "Bone"
        },
        {
            "name" : "Bone.003",
            "rotation" : [
                -1.5987211554602254e-14,
                7.374340836596455e-16,
                -7.374311190443301e-16,
                1
            ],
            "translation" : [
                -4.475142045129443e-14,
                2.635082721710205,
                -1.378852408770101e-14
            ]
        },
        {
            "children" : [
                2
            ],
            "name" : "Bone.002",
            "rotation" : [
                1,
                -9.735358474927125e-08,
                -9.735358474927125e-08,
                -6.339202940353061e-08
            ]
        },
        {
            "mesh" : 0,
            "name" : "Icosphere",
            "skin" : 0
        },
        {
            "children" : [
                4,
                1,
                3
            ],
            "name" : "Armature",
            "rotation" : [
                0,
                0,
                -0.7071067094802856,
                0.7071068286895752
            ]
        }
    ],
    "animations" : [
        {
            "channels" : [
                {
                    "sampler" : 0,
                    "target" : {
                        "node" : 1,
                        "path" : "translation"
                    }
                },
                {
                    "sampler" : 1,
                    "target" : {
                        "node" : 1,
                        "path" : "rotation"
                    }
                },
                {
                    "sampler" : 2,
                    "target" : {
                        "node" : 1,
                        "path" : "scale"
                    }
                },
                {
                    "sampler" : 3,
                    "target" : {
                        "node" : 0,
                        "path" : "translation"
                    }
                },
                {
                    "sampler" : 4,
                    "target" : {
                        "node" : 0,
                        "path" : "rotation"
                    }
                },
                {
                    "sampler" : 5,
                    "target" : {
                        "node" : 0,
                        "path" : "scale"
                    }
                },
                {
                    "sampler" : 6,
                    "target" : {
                        "node" : 3,
                        "path" : "translation"
                    }
                },
                {
                    "sampler" : 7,
                    "target" : {
                        "node" : 3,
                        "path" : "rotation"
                    }
                },
                {
                    "sampler" : 8,
                    "target" : {
                        "node" : 3,
                        "path" : "scale"
                    }
                },
                {
                    "sampler" : 9,
                    "target" : {
                        "node" : 2,
                        "path" : "translation"
                    }
                },
                {
                    "sampler" : 10,
                    "target" : {
                        "node" : 2,
                        "path" : "rotation"
                    }
                },
                {
                    "sampler" : 11,
                    "target" : {
                        "node" : 2,
                        "path" : "scale"
                    }
                }
            ],
            "name" : "Swim",
            "samplers" : [
                {
                    "input" : 13,
                    "interpolation" : "LINEAR",
                    "output" : 14
                },
                {
                    "input" : 13,
                    "interpolation" : "LINEAR",
                    "output" : 15
                },
                {
                    "input" : 13,
                    "interpolation" : "LINEAR",
                    "output" : 16
                },
                {
                    "input" : 13,
                    "interpolation" : "LINEAR",
                    "output" : 17
                },
                {
                    "input" : 13,
                    "interpolation" : "LINEAR",
                    "output" : 18
                },
                {
                    "input" : 13,
                    "interpolation" : "LINEAR",
                    "output" : 19
                },
                {
                    "input" : 13,
                    "interpolation" : "LINEAR",
                    "output" : 20
                },
                {
                    "input" : 13,
                    "interpolation" : "LINEAR",
                    "output" : 21
                },
                {
                    "input" : 13,
                    "interpolation" : "LINEAR",
                    "output" : 22
                },
                {
                    "input" : 13,
                    "interpolation" : "LINEAR",
                    "output" : 23
                },
                {
                    "input" : 13,
                    "interpolation" : "LINEAR",
                    "output" : 24
                },
                {
                    "input" : 13,
                    "interpolation" : "LINEAR",
                    "output" : 25
                }
            ]
        }
    ],
    "materials" : [
        {
            "doubleSided" : true,
            "name" : "Scales",
            "pbrMetallicRoughness" : {
                "baseColorFactor" : [
                    0.0556677021086216,
                    0.12278716266155243,
                    0.23951691389083862,
                    1
                ],
                "metallicFactor" : 0.20571428537368774,
                "roughnessFactor" : 0.27142855525016785
            }
        },
        {
            "doubleSided" : true,
            "name" : "Eyes",
            "pbrMetallicRoughness" : {
                "baseColorFactor" : [
                    0.005604668520390987,
                    0.005604668520390987,
                    0.005604668520390987,
                    1
                ],
                "metallicFactor" : 0,
                "roughnessFactor" : 0.8314285278320312
            }
        }
    ],
    "meshes" : [
        {
            "name" : "Icosphere",
            "primitives" : [
                {
                    "attributes" : {
                        "POSITION" : 0,
                        "NORMAL" : 1,
                        "TEXCOORD_0" : 2,
                        "JOINTS_0" : 3,
                        "WEIGHTS_0" : 4
                    },
                    "indices" : 5,
                    "material" : 0
                },
                {
                    "attributes" : {
                        "POSITION" : 6,
                        "NORMAL" : 7,
                        "TEXCOORD_0" : 8,
                        "JOINTS_0" : 9,
                        "WEIGHTS_0" : 10
                    },
                    "indices" : 11,
                    "material" : 1
                }
            ]
        }
    ],
    "skins" : [
        {
            "inverseBindMatrices" : 12,
            "joints" : [
                1,
                0,
                3,
                2
            ],
            "name" : "Armature"
        }
    ],
    "accessors" : [
        {
            "bufferView" : 0,
            "componentType" : 5126,
            "count" : 298,
            "max" : [
                3.4139554500579834,
                2.662476062774658,
                0.4628189206123352
            ],
            "min" : [
                -3.99661922454834,
                -2.167325973510742,
                -0.4628189206123352
            ],
            "type" : "VEC3"
        },
        {
            "bufferView" : 1,
            "componentType" : 5126,
            "count" : 298,
            "type" : "VEC3"
        },
        {
            "bufferView" : 2,
            "componentType" : 5126,
            "count" : 298,
            "type" : "VEC2"
        },
        {
            "bufferView" : 3,
            "componentType" : 5123,
            "count" : 298,
            "type" : "VEC4"
        },
        {
            "bufferView" : 4,
            "componentType" : 5126,
            "count" : 298,
            "type" : "VEC4"
        },
        {
            "bufferView" : 5,
            "componentType" : 5123,
            "count" : 324,
            "type" : "SCALAR"
        },
        {
            "bufferView" : 6,
            "componentType" : 5126,
            "count" : 240,
            "max" : [
                2.902712106704712,
                0.6507197618484497,
                0.39319831132888794
            ],
            "min" : [
                2.099113702774048,
                -0.1356770098209381,
                -0.39319831132888794
            ],
            "type" : "VEC3"
        },
        {
            "bufferView" : 7,
            "componentType" : 5126,
            "count" : 240,
            "type" : "VEC3"
        },
        {
            "bufferView" : 8,
            "componentType" : 5126,
            "count" : 240,
            "type" : "VEC2"
        },
        {
            "bufferView" : 9,
            "componentType" : 5123,
            "count" : 240,
            "type" : "VEC4"
        },
        {
            "bufferView" : 10,
            "componentType" : 5126,
            "count" : 240,
            "type" : "VEC4"
        },
        {
            "bufferView" : 11,
            "componentType" : 5123,
            "count" : 240,
            "type" : "SCALAR"
        },
        {
            "bufferView" : 12,
            "componentType" : 5126,
            "count" : 4,
            "type" : "MAT4"
        },
        {
            "bufferView" : 13,
            "componentType" : 5126,
            "count" : 21,
            "max" : [
                0.8333333333333334
            ],
            "min" : [
                0
            ],
            "type" : "SCALAR"
        },
        {
            "bufferView" : 14,
            "componentType" : 5126,
            "count" : 21,
            "type" : "VEC3"
        },
        {
            "bufferView" : 15,
            "componentType" : 5126,
            "count" : 21,
            "type" : "VEC4"
        },
        {
            "bufferView" : 16,
            "componentType" : 5126,
            "count" : 21,
            "type" : "VEC3"
        },
        {
            "bufferView" : 17,
            "componentType" : 5126,
            "count" : 21,
            "type" : "VEC3"
        },
        {
            "bufferView" : 18,
            "componentType" : 5126,
            "count" : 21,
            "type" : "VEC4"
        },
        {
            "bufferView" : 19,
            "componentType" : 5126,
            "count" : 21,
            "type" : "VEC3"
        },
        {
            "bufferView" : 20,
            "componentType" : 5126,
            "count" : 21,
            "type" : "VEC3"
        },
        {
            "bufferView" : 21,
            "componentType" : 5126,
            "count" : 21,
            "type" : "VEC4"
        },
        {
            "bufferView" : 22,
            "componentType" : 5126,
            "count" : 21,
            "type" : "VEC3"
        },
        {
            "bufferView" : 23,
            "componentType" : 5126,
            "count" : 21,
            "type" : "VEC3"
        },
        {
            "bufferView" : 24,
            "componentType" : 5126,
            "count" : 21,
            "type" : "VEC4"
        },
        {
            "bufferView" : 25,
            "componentType" : 5126,
            "count" : 21,
            "type" : "VEC3"
        }
    ],
    "bufferViews" : [
        {
            "buffer" : 0,
            "byteLength" : 3576,
            "byteOffset" : 0
        },
        {
            "buffer" : 0,
            "byteLength" : 3576,
            "byteOffset" : 3576
        },
        {
            "buffer" : 0,
            "byteLength" : 2384,
            "byteOffset" : 7152
        },
        {
            "buffer" : 0,
            "byteLength" : 2384,
            "byteOffset" : 9536
        },
        {
            "buffer" : 0,
            "byteLength" : 4768,
            "byteOffset" : 11920
        },
        {
            "buffer" : 0,
            "byteLength" : 648,
            "byteOffset" : 16688
        },
        {
            "buffer" : 0,
            "byteLength" : 2880,
            "byteOffset" : 17336
        },
        {
            "buffer" : 0,
            "byteLength" : 2880,
            "byteOffset" : 20216
        },
        {
            "buffer" : 0,
            "byteLength" : 1920,
            "byteOffset" : 23096
        },
        {
            "buffer" : 0,
            "byteLength" : 1920,
            "byteOffset" : 25016
        },
        {
            "buffer" : 0,
            "byteLength" : 3840,
            "byteOffset" : 26936
        },
        {
            "buffer" : 0,
            "byteLength" : 480,
            "byteOffset" : 30776
        },
        {
            "buffer" : 0,
            "byteLength" : 256,
            "byteOffset" : 31256
        },
        {
            "buffer" : 0,
            "byteLength" : 84,
            "byteOffset" : 31512
        },
        {
            "buffer" : 0,
            "byteLength" : 252,
            "byteOffset" : 31596
        },
        {
            "buffer" : 0,
            "byteLength" : 336,
            "byteOffset" : 31848
        },
        {
            "buffer" : 0,
            "byteLength" : 252,
            "byteOffset" : 32184
        },
        {
            "buffer" : 0,
            "byteLength" : 252,
            "byteOffset" : 32436
        },
        {
            "buffer" : 0,
            "byteLength" : 336,
            "byteOffset" : 32688
        },
        {
            "buffer" : 0,
            "byteLength" : 252,
            "byteOffset" : 33024
        },
        {
            "buffer" : 0,
            "byteLength" : 252,
            "byteOffset" : 33276
        },
        {
            "buffer" : 0,
            "byteLength" : 336,
            "byteOffset" : 33528
        },
        {
            "buffer" : 0,
            "byteLength" : 252,
            "byteOffset" : 33864
        },
        {
            "buffer" : 0,
            "byteLength" : 252,
            "byteOffset" : 34116
        },
        {
            "buffer" : 0,
            "byteLength" : 336,
            "byteOffset" : 34368
        },
        {
            "buffer" : 0,
            "byteLength" : 252,
            "byteOffset" : 34704
        }
    ],
    "buffers" : [
        {
            "byteLength" : 34956,
            "uri" : "data:application/octet-stream;base64,"
        }
    ]
}
